<?xml version="1.0" encoding="iso-8859-1"?>
<!-- Generator: Adobe Illustrator 19.0.0, SVG Export Plug-In . SVG Version: 6.00 Build 0)  -->
<svg version="1.1" id="Capa_1" xmlns="http://www.w3.org/2000/svg" xmlns:xlink="http://www.w3.org/1999/xlink" x="0px" y="0px"
	 viewBox="0 0 512.002 512.002" style="enable-background:new 0 0 512.002 512.002;" xml:space="preserve">
<path style="fill:#78D2FA;" d="M502.001,256.001c0-135.862-110.138-246-246-246s-246,110.138-246,246
	c0,88.975,47.236,166.917,118,210.117c37.29,22.765,81.113,35.883,128,35.883C391.864,502.001,502.001,391.863,502.001,256.001z"/>
<g>
	<path style="fill:#A5DC69;" d="M192.209,282.546l-162.52,70.029c20.212,47.303,54.814,86.988,98.312,113.543
		c23.835,14.551,50.342,25.152,78.609,30.913l2.506-1.783l17.859-32.429h14.068c15.699,0,28.425-12.726,28.425-28.425v-13.803
		c0-6.03,1.917-11.903,5.475-16.771l-38.954-58.18L192.209,282.546z"/>
	<path style="fill:#A5DC69;" d="M256.001,10.001c-47.378,0-91.619,13.406-129.161,36.614v6.27l61.102,23.246
		c5.432,2.067,8.945,7.363,8.736,13.171l0,0c4.92,14.156,21.221,20.693,34.56,13.859l13.275-7.014
		c38.559-20.372,84.157,10.85,79.114,54.168l-0.123,1.054c-1.24,10.651-8.797,19.146-18.945,21.542
		c-6.604,1.559-14.124,3.352-20.568,4.892c-9.339,2.233-16.531,9.684-18.432,19.097l-8.582,42.489
		c-3.015,14.928,8.08,28.996,23.299,29.544l11.013,0.396c3.17,0.114,6.289,0.838,9.185,2.133l59.4,68.997l-6.32,74.857
		c-1.456,22.972,12.594,40.884,30.956,47.856l3.529,0.418c68.516-43.67,113.962-120.32,113.962-207.589
		C502.001,120.139,391.864,10.001,256.001,10.001z"/>
</g>
<path style="fill:#F5B955;" d="M192.001,300.09c0-50.258-40.742-91-91-91s-91,40.742-91,91c0,21.786,7.66,41.782,20.428,57.448
	h-0.006l70.578,90.463l70.241-89.989h-0.053C184.19,342.276,192.001,322.096,192.001,300.09z"/>
<circle style="fill:#FFFFFF;" cx="101.001" cy="301.54" r="48"/>
<path style="fill:#FF5A5A;" d="M502.001,83.833c0-40.777-33.056-73.833-73.833-73.833s-73.833,33.056-73.833,73.833
	c0,17.677,6.215,33.9,16.575,46.611h-0.005l57.264,73.398l56.991-73.013h-0.043C495.664,118.061,502.001,101.687,502.001,83.833z"/>
<circle style="fill:#FFFFFF;" cx="428.171" cy="85.01" r="32.13"/>
<path d="M15.084,205.012c0.825,0.209,1.652,0.309,2.466,0.309c4.467,0,8.537-3.015,9.686-7.543l0.344-1.341
	c1.395-5.345-1.807-10.807-7.151-12.201s-10.806,1.807-12.201,7.15c-0.128,0.49-0.254,0.982-0.378,1.474
	C6.492,198.213,9.731,203.653,15.084,205.012z"/>
<path d="M29.101,160.271c1.378,0.65,2.829,0.957,4.257,0.957c3.751,0,7.347-2.12,9.052-5.737
	c18.099-38.393,46.001-70.445,79.849-93.722c0.33,0.17,0.67,0.327,1.025,0.462l61.101,23.245c1.431,0.545,2.354,1.938,2.299,3.467
	c-0.044,1.237,0.142,2.473,0.548,3.643c3.296,9.481,10.53,17.063,19.847,20.799c9.318,3.735,19.785,3.252,28.719-1.324
	c0.037-0.019,0.074-0.038,0.111-0.058l13.276-7.014c14.764-7.8,31.805-6.827,45.584,2.608c13.781,9.435,20.856,24.971,18.924,41.562
	l-0.123,1.053c-0.749,6.432-5.188,11.521-11.31,12.966c-6.612,1.562-14.143,3.356-20.595,4.899
	c-13.077,3.127-23.247,13.663-25.909,26.843l-8.582,42.489c-2.02,9.998,0.445,20.326,6.762,28.336
	c6.316,8.01,15.786,12.814,25.98,13.181l11.013,0.396c1.895,0.068,3.732,0.496,5.463,1.27c1.326,0.593,2.712,0.874,4.076,0.874
	c3.823-0.001,7.473-2.205,9.135-5.921c2.254-5.042-0.005-10.957-5.047-13.211c-4.089-1.828-8.431-2.837-12.907-2.998l-11.013-0.396
	c-4.314-0.155-8.322-2.188-10.996-5.579c-2.673-3.39-3.716-7.761-2.861-11.992l8.582-42.489c1.125-5.572,5.426-10.028,10.956-11.351
	c6.436-1.539,13.946-3.328,20.54-4.886c14.191-3.35,24.873-15.453,26.581-30.119l0.123-1.053c2.806-24.1-7.472-46.67-27.492-60.377
	c-20.019-13.705-44.776-15.122-66.226-3.788l-13.214,6.981c-3.824,1.942-8.122,2.133-12.104,0.534
	c-3.566-1.43-6.324-4.069-7.884-7.51c-0.58-9.146-6.441-17.216-15.142-20.527l-47.766-18.172
	c33.931-18.398,72.417-28.61,112.268-28.61c26.01,0,51.563,4.2,75.95,12.485c5.231,1.777,10.909-1.022,12.686-6.252
	c1.776-5.229-1.023-10.909-6.252-12.686C311.922,4.56,284.204,0.001,256.001,0.001c-49.493,0-97.521,14.149-138.892,40.918
	c-40.288,26.068-72.374,62.737-92.79,106.043C21.965,151.958,24.105,157.917,29.101,160.271z"/>
<path d="M489.686,178.275c-5.308,1.526-8.373,7.066-6.847,12.374c6.08,21.144,9.163,43.131,9.163,65.352
	c0,24.196-3.646,48.053-10.834,70.906c-1.657,5.269,1.27,10.883,6.538,12.54c0.999,0.314,2.009,0.464,3.004,0.464
	c4.25,0,8.193-2.732,9.536-7.002c7.8-24.799,11.755-50.674,11.755-76.908c0-24.091-3.345-47.938-9.942-70.879
	C500.533,179.814,494.992,176.748,489.686,178.275z"/>
<path d="M474.108,370.539c-4.219-2.499-10.541-1.793-13.819,3.708c-0.019,0.032-0.038,0.064-0.057,0.097
	c-3.217,5.538-0.762,11.407,3.47,13.881c1.5,0.877,3.261,1.351,5.056,1.351c3.269,0,6.646-1.571,8.743-5.136
	C480.749,378.919,478.326,373.037,474.108,370.539z"/>
<path d="M446.029,412.553c-4.115-3.683-10.437-3.334-14.121,0.782c-13.664,15.266-29.141,28.531-45.948,39.612
	c-11.532-5.207-23.613-17.552-22.43-36.899l6.31-74.748c0.465-5.503-3.62-10.341-9.123-10.806c-5.5-0.447-10.341,3.62-10.806,9.124
	l-6.319,74.857c-0.006,0.069-0.011,0.139-0.016,0.208c-1.258,19.841,7.57,38.318,22.852,49.829
	c-33.693,17.837-71.563,27.489-110.427,27.489c-10.881,0-21.724-0.76-32.444-2.244l9.327-16.936h8.159
	c21.188,0,38.425-17.237,38.425-38.425v-13.803c0-3.935,1.227-7.694,3.549-10.871c3.259-4.459,2.286-10.716-2.173-13.975
	c-4.46-3.258-10.716-2.286-13.974,2.174c-4.842,6.626-7.401,14.466-7.401,22.672v13.803c0,10.159-8.265,18.425-18.425,18.425
	h-14.068c-3.645,0-7.001,1.983-8.759,5.176l-15.39,27.945c-21.584-4.975-42.421-12.96-61.776-23.777
	c-4.824-2.692-10.914-0.97-13.608,3.852s-0.97,10.913,3.851,13.607c37.905,21.182,81.028,32.378,124.708,32.378
	c72.726,0,142.273-31.101,190.809-85.328C450.494,422.558,450.144,416.236,446.029,412.553z"/>
<path d="M428.168,127.139c23.229,0,42.127-18.898,42.127-42.128c0-23.229-18.898-42.127-42.127-42.127s-42.127,18.898-42.127,42.127
	S404.939,127.139,428.168,127.139z M428.168,62.884c12.201,0,22.127,9.926,22.127,22.127s-9.926,22.128-22.127,22.128
	s-22.127-9.927-22.127-22.128S415.967,62.884,428.168,62.884z"/>
<path d="M179.523,363.618c11.782-14.55,19.256-32.143,21.646-50.617l26.604,38.342c1.942,2.799,5.057,4.3,8.225,4.3
	c1.967,0,3.954-0.579,5.692-1.785c4.538-3.148,5.664-9.379,2.515-13.917l-43.781-63.096c-0.456-0.657-0.983-1.234-1.554-1.745
	c-11.15-43.644-50.8-76.01-97.869-76.01c-55.691,0-101,45.309-101,101c0,23.066,7.977,45.606,22.467,63.507
	c0.023,0.031,0.047,0.062,0.071,0.093l70.578,90.463c1.895,2.429,4.803,3.849,7.883,3.849l0,0c3.08,0,5.988-1.419,7.883-3.847
	l70.241-89.989C179.265,363.986,179.397,363.804,179.523,363.618z M162.783,352.599l-61.779,79.147l-62.498-80.105
	c-0.104-0.143-0.212-0.282-0.324-0.42c-11.724-14.385-18.181-32.543-18.181-51.131c0-44.663,36.336-81,81-81s81,36.337,81,81
	c0,18.788-6.578,37.097-18.521,51.553C163.227,351.949,162.994,352.269,162.783,352.599z"/>
<path d="M101.001,243.542c-31.981,0-58,26.019-58,58s26.019,58,58,58s58-26.019,58-58S132.983,243.542,101.001,243.542z
	 M101.001,339.542c-20.953,0-38-17.047-38-38s17.047-38,38-38s38,17.047,38,38S121.955,339.542,101.001,339.542z"/>
<path d="M362.962,136.52c0.019,0.024,0.039,0.05,0.058,0.075l57.264,73.397c1.895,2.429,4.803,3.849,7.883,3.849c0,0,0,0,0.001,0
	c3.08,0,5.988-1.419,7.883-3.847l56.991-73.013c0.123-0.157,0.24-0.316,0.352-0.479c12.005-14.857,18.607-33.525,18.607-52.669
	C512.001,37.607,474.394,0,428.168,0s-83.833,37.607-83.833,83.833C344.335,102.967,350.948,121.665,362.962,136.52z M428.168,20
	c35.198,0,63.833,28.636,63.833,63.833c0,14.806-5.183,29.233-14.595,40.626c-0.235,0.284-0.452,0.579-0.651,0.883l-48.585,62.244
	l-49.199-63.061c-0.099-0.135-0.203-0.269-0.31-0.399c-9.238-11.335-14.326-25.645-14.326-40.293
	C364.335,48.636,392.97,20,428.168,20z"/>
<path d="M189.945,412.525l-4.521,2.136c-4.994,2.359-7.129,8.319-4.771,13.313c1.708,3.614,5.301,5.73,9.049,5.73
	c1.431,0,2.885-0.309,4.265-0.96l4.521-2.136c4.994-2.359,7.129-8.319,4.771-13.313
	C200.899,412.302,194.939,410.169,189.945,412.525z"/>
<path d="M428.168,254.1c-5.523,0-10,4.478-10,10c0,1.29-0.073,2.591-0.217,3.865c-0.621,5.488,3.326,10.439,8.813,11.06
	c0.382,0.043,0.76,0.064,1.135,0.064c5.02,0,9.348-3.771,9.924-8.878c0.228-2.018,0.344-4.073,0.344-6.111
	C438.168,258.577,433.691,254.1,428.168,254.1z"/>
<path d="M358.258,298.001c-5.523,0-10,4.478-10,10s4.477,10,10,10h5c5.523,0,10-4.478,10-10s-4.477-10-10-10H358.258z"/>
<path d="M401.874,293.077c-1.094,0.667-2.24,1.277-3.406,1.817c-5.012,2.319-7.195,8.264-4.875,13.275
	c1.69,3.652,5.305,5.802,9.082,5.802c1.406,0,2.834-0.298,4.194-0.927c1.85-0.856,3.668-1.826,5.406-2.884
	c4.717-2.872,6.213-9.024,3.341-13.742C412.744,291.702,406.592,290.208,401.874,293.077z"/>
<path d="M251.065,359.523l-2.683,4.22c-2.963,4.661-1.587,10.841,3.074,13.805c1.664,1.058,3.52,1.562,5.355,1.562
	c3.307,0,6.543-1.639,8.448-4.636l2.683-4.22c2.963-4.661,1.587-10.841-3.074-13.805
	C260.209,353.486,254.028,354.863,251.065,359.523z"/>
<path d="M289.011,318.475c-4.66-2.962-10.84-1.587-13.804,3.073l-2.682,4.219c-2.963,4.661-1.587,10.841,3.074,13.804
	c1.664,1.058,3.521,1.563,5.356,1.563c3.307,0,6.542-1.639,8.448-4.636l2.682-4.219
	C295.047,327.617,293.671,321.438,289.011,318.475z"/>
<path d="M230.634,393.305l-4.521,2.136c-4.994,2.359-7.129,8.319-4.771,13.313c1.708,3.614,5.301,5.73,9.049,5.73
	c1.431,0,2.885-0.309,4.265-0.96l4.521-2.136c4.994-2.359,7.129-8.319,4.771-13.313
	C241.587,393.081,235.627,390.947,230.634,393.305z"/>
<path d="M313.258,298.001c-5.523,0-10,4.478-10,10s4.477,10,10,10h5c5.523,0,10-4.478,10-10s-4.477-10-10-10H313.258z"/>
<g>
</g>
<g>
</g>
<g>
</g>
<g>
</g>
<g>
</g>
<g>
</g>
<g>
</g>
<g>
</g>
<g>
</g>
<g>
</g>
<g>
</g>
<g>
</g>
<g>
</g>
<g>
</g>
<g>
</g>
</svg>
